<svg xmlns="http://www.w3.org/2000/svg" xmlns:xlink="http://www.w3.org/1999/xlink" width="218" height="60" viewBox="0 0 218 60">
    <defs>
        <path id="a" d="M.016.644V16.38H22.77V.644H.016z"/>
        <path id="c" d="M20.628.206H.13v15.885h20.498V.206z"/>
        <path id="e" d="M15.5 16.091V.644H.134v15.447H15.5z"/>
    </defs>
    <g fill="none" fill-rule="evenodd">
        <path fill="#D9A345" d="M2.79 60h66.977v-5.581H2.791z"/>
        <path fill="#669B41" d="M75.349 60h66.977v-5.581H75.349z"/>
        <path fill="#005B94" d="M147.21 60h66.976v-5.581h-66.977z"/>
        <g>
            <mask id="b" fill="#fff">
                <use xlink:href="#a"/>
            </mask>
            <path fill="#54565A" d="M1.873 2.641c-.23-.767-.477-1.252-.744-1.458-.283-.12-.55-.18-.805-.18C.122 1.017.014.954 0 .82.014.702.16.644.441.644c1.203.014 1.98.033 2.334.06.105 0 .36-.013.766-.04.385-.013.872-.02 1.461-.02.281 0 .42.058.42.175-.01.135-.132.198-.361.184-.171 0-.337.027-.501.08-.162.08-.239.228-.225.45 0 .053.022.135.07.248.01.122.038.264.076.43.079.326.18.727.306 1.199.843 3.005 1.7 5.906 2.57 8.705h.058L11.308 1.46c.124-.286.218-.486.283-.599.08-.093.151-.14.216-.14.113 0 .214.076.304.231.078.16.173.401.285.727l4.177 10.285h.06A706.152 706.152 0 0 1 19.3 2.801c.079-.246.14-.472.187-.679.013-.201.02-.37.02-.51a.62.62 0 0 0-.187-.45c-.13-.106-.393-.159-.784-.159-.23 0-.344-.062-.344-.184 0-.117.157-.175.47-.175 1.14.014 1.834.033 2.09.06.104 0 .324-.013.657-.04.321-.013.656-.02 1.01-.02.222 0 .339.051.352.155 0 .136-.09.204-.274.204-.23 0-.463.033-.706.1-.23.08-.416.312-.56.698a28.14 28.14 0 0 0-.569 1.467 553.169 553.169 0 0 0-4.01 12.153c-.1.34-.187.581-.265.727-.077.155-.185.23-.324.23-.09 0-.175-.075-.254-.23-.1-.157-.218-.416-.362-.778l-4.18-10.24h-.037c-1.06 2.974-2.365 6.36-3.914 10.16a9.02 9.02 0 0 1-.403.838c-.096.167-.204.25-.323.25-.176 0-.329-.247-.461-.746L1.873 2.641z" mask="url(#b)"/>
        </g>
        <path fill="#54565A" d="M32.946 9.757c.093 0 .126-.04.1-.12L31.23 4.59c-.013-.106-.045-.166-.099-.18-.051.014-.092.074-.117.18l-1.843 5.028c-.034.093-.007.14.079.14h3.695zm-4.098 1.015c-.096 0-.16.053-.186.162l-1.077 2.93c-.202.547-.304.964-.304 1.25 0 .172.059.316.176.43.123.132.335.201.627.201h.303c.212 0 .308.053.295.164 0 .129-.11.193-.333.193-.726-.027-1.439-.044-2.135-.058-.374.014-1.16.031-2.363.058-.256 0-.382-.064-.382-.193 0-.11.08-.166.245-.166.209 0 .413-.013.616-.04.458-.067.813-.262 1.07-.587.141-.167.26-.362.353-.579.096-.2.19-.423.283-.669l5.038-12.832c.216-.558.402-.83.56-.817.161 0 .332.215.508.647a2412.69 2412.69 0 0 0 4.97 12.572c.394.884.735 1.472 1.03 1.757.294.273.542.428.744.468.308.053.589.082.843.082.17 0 .256.053.256.164 0 .078-.054.122-.157.135-.137.04-.394.06-.765.06-.818 0-2.081-.015-3.794-.04-.385 0-.585-.053-.598-.155 0-.11.092-.173.274-.186.191-.053.252-.208.187-.47l-1.608-4.34c-.038-.094-.108-.141-.204-.141h-4.472z"/>
        <g fill="#54565A">
            <path d="M46.436 10.164c-.013 1.31.007 2.318.058 3.023.05.738.173 1.196.359 1.376.155.135.407.241.755.32.343.088.89.13 1.645.13.53 0 .992-.036 1.387-.111.38-.051.69-.208.928-.468.279-.352.45-.762.513-1.227 0-.186.076-.286.224-.3.102 0 .155.114.155.34 0 .152-.026.496-.08 1.028-.064.532-.132.973-.212 1.325-.038.22-.124.364-.26.43-.161.08-.491.12-.987.12a457.79 457.79 0 0 1-5.76-.118c-.665.011-1.495.031-2.494.058-.264 0-.397-.062-.397-.195-.013-.109.091-.164.308-.164.308 0 .545-.027.713-.08a.59.59 0 0 0 .415-.39 2.37 2.37 0 0 0 .163-.738c.065-.94.096-2.391.096-4.357V6.567c0-2.677-.011-4.122-.034-4.335-.01-.36-.073-.627-.183-.8-.116-.193-.337-.317-.667-.37a2.99 2.99 0 0 0-.656-.06c-.225.014-.338-.048-.338-.184 0-.115.146-.175.434-.175 1.107.014 2.013.034 2.713.06.753-.013 1.65-.033 2.684-.06.279 0 .416.06.416.175 0 .136-.117.198-.35.184-.25 0-.51.02-.773.06-.252.04-.434.15-.542.33-.118.187-.182.466-.195.84-.011.273-.018.69-.018 1.248-.013.56-.02 1.589-.02 3.087v3.597zM60.14 1.782l-2.953.08c-.553.013-.976.053-1.266.12-.29.092-.512.25-.658.467-.182.315-.29.554-.33.72-.027.16-.1.24-.224.24-.128 0-.186-.107-.173-.32 0-.1.027-.261.078-.487.04-.23.08-.483.12-.754.124-.596.199-.964.225-1.103.054-.26.129-.39.233-.39.084 0 .19.037.319.11.115.067.292.113.531.14.625.066 1.285.1 1.98.1h7.836c1.183-.04 1.818-.107 1.902-.2.102 0 .155.142.155.428-.013.73-.033 1.516-.057 2.358-.014.22-.076.328-.186.328-.142.015-.215-.122-.215-.408l-.018-.23c0-.286-.17-.543-.511-.77-.348-.219-.957-.343-1.825-.37l-2.492-.06v8.384c-.013 1.966.018 3.429.095 4.388.034.286.1.523.204.71.091.206.281.336.572.39a6.6 6.6 0 0 0 1.014.077c.212 0 .319.056.319.166-.018.129-.144.195-.377.195-1.417-.026-2.454-.046-3.11-.06-.657.014-1.487.034-2.49.06-.266 0-.397-.066-.397-.195-.013-.108.093-.164.319-.164.301 0 .54-.026.713-.08a.667.667 0 0 0 .434-.39c.078-.186.122-.432.135-.737.064-.938.098-2.387.098-4.35V1.781zM80.872 15.362c.368 0 .802-.073 1.305-.22.513-.152 1.023-.447 1.525-.879.501-.454.917-1.121 1.245-2.008.328-.873.498-2.039.512-3.499-.025-2.318-.578-4.133-1.661-5.443-1.094-1.307-2.472-1.968-4.133-1.981-.554 0-1.114.086-1.68.26-.579.192-1.108.535-1.584 1.03-.476.458-.86 1.106-1.15 1.937-.3.833-.454 1.892-.454 3.178 0 2.178.54 3.978 1.624 5.396 1.056 1.46 2.54 2.203 4.451 2.23m-.83 1.017c-2.809-.054-4.848-.938-6.12-2.655-1.249-1.663-1.869-3.449-1.853-5.36-.016-1.867.611-3.642 1.873-5.327C75.198 1.303 77.293.408 80.23.357c5.224.11 7.89 2.66 8 7.641-.014 2.39-.747 4.364-2.202 5.926-1.448 1.598-3.444 2.416-5.986 2.456M96.27 13.328c.024.771.097 1.33.213 1.675.115.328.274.523.473.59.355.106.698.153 1.033.14.225 0 .338.055.338.163-.017.129-.172.195-.462.195a222.65 222.65 0 0 1-2.454-.06c-.29.014-1.001.034-2.135.06-.288.014-.434-.05-.434-.195 0-.108.106-.164.319-.164.292 0 .586-.033.89-.1.252-.066.423-.292.514-.68.084-.379.12-1 .106-1.857L94.846.984c-.013-.445.073-.676.261-.687.115 0 .228.055.337.168.117.12.246.277.387.47.727.831 2.769 3.019 6.128 6.558.753.778 1.613 1.684 2.578 2.715a97.902 97.902 0 0 0 1.777 1.948h.095l-.193-9.193c0-.614-.049-1.057-.146-1.33-.115-.259-.292-.43-.53-.51a3.594 3.594 0 0 0-1.054-.12c-.219 0-.32-.061-.307-.183 0-.078.05-.13.152-.155.104-.013.224-.02.36-.02 1.107.013 1.904.033 2.393.06.115 0 .344-.014.685-.04.347-.013.764-.02 1.246-.02.288-.013.441.044.452.175 0 .122-.115.184-.347.184-.175 0-.377.02-.603.06a.724.724 0 0 0-.551.49c-.111.259-.173.675-.186 1.247l-.213 12.911c0 .42-.086.628-.26.628-.103 0-.207-.056-.31-.169a2.756 2.756 0 0 1-.356-.281 741.184 741.184 0 0 1-5.829-6.008c-2.465-2.635-4.033-4.353-4.71-5.15h-.06l.228 8.596z"/>
        </g>
        <g fill="#54565A">
            <path d="M127.797 10.166c-.013 2.005.017 3.457.097 4.357.026.306.092.554.202.74.088.206.277.337.568.39.325.051.653.078.981.078.224 0 .337.055.337.166 0 .128-.143.193-.432.193a913.421 913.421 0 0 1-2.985-.058c-.711.013-1.54.033-2.496.058-.275 0-.411-.065-.411-.193-.013-.111.081-.164.286-.164.306 0 .541-.027.708-.08a.588.588 0 0 0 .412-.39c.081-.186.136-.432.163-.74.064-.9.094-2.352.094-4.357V6.569c0-2.677-.01-4.124-.033-4.337-.01-.359-.072-.625-.182-.8-.115-.193-.335-.315-.663-.368a3.986 3.986 0 0 0-.768-.062c-.222 0-.334-.053-.334-.164 0-.128.15-.193.451-.193 1.168.014 2.115.034 2.839.06 1.879 0 3.613-.006 5.203-.02.352-.013.62-.04.808-.08a.908.908 0 0 1 .308-.12c.097.014.143.074.143.18-.011.104-.066.41-.165.913-.024.53-.057 1.08-.097 1.651 0 .193-.064.288-.193.288-.122 0-.19-.11-.203-.328v-.35a1.265 1.265 0 0 0-.117-.43c-.05-.146-.189-.288-.413-.427-.214-.107-.508-.167-.887-.18l-3.047-.06c-.117 0-.174.093-.174.28V7.14c-.013.126.03.19.134.19l2.517-.02c.335 0 .63-.006.885-.02.372 0 .658-.124.856-.37.077-.14.16-.21.25-.21.077 0 .115.064.115.19 0 .054-.013.196-.038.428-.013.093-.033.213-.059.36-.01.152-.03.312-.057.478-.05.625-.075 1.121-.075 1.487 0 .093-.007.177-.02.25-.013.093-.075.14-.182.14-.102-.013-.154-.11-.154-.29 0-.16-.038-.37-.115-.63-.04-.153-.138-.301-.297-.447a.88.88 0 0 0-.3-.21 1.695 1.695 0 0 0-.413-.08c-.314-.04-.81-.06-1.49-.06h-1.423c-.09 0-.134.06-.134.179v1.66zM144.464 9.745c.09 0 .123-.04.097-.12l-1.776-5.048c-.013-.106-.044-.166-.097-.18-.05.014-.088.074-.114.18l-1.805 5.028c-.033.094-.006.14.077.14h3.618zm-4.011 1.015c-.095 0-.157.053-.18.162l-1.057 2.93c-.198.547-.297.964-.297 1.25a.58.58 0 0 0 .172.43c.12.132.327.199.613.199h.297c.207 0 .302.055.289.166 0 .129-.108.193-.326.193-.71-.027-1.406-.044-2.09-.058-.366.014-1.136.031-2.313.058-.25 0-.374-.064-.374-.193 0-.11.08-.166.24-.166.205 0 .405-.013.603-.04.449-.067.796-.262 1.047-.587.141-.167.255-.362.346-.579.094-.2.187-.423.277-.669l4.93-12.831c.212-.559.395-.832.549-.818.158 0 .325.215.497.647 1.23 3.207 2.85 7.397 4.865 12.572.385.884.72 1.472 1.008 1.757.288.273.53.428.728.468.302.053.577.08.825.08.167 0 .251.055.251.166 0 .078-.053.122-.154.135-.134.04-.383.06-.748.06-.801 0-2.038-.015-3.714-.04-.377 0-.572-.053-.583-.155 0-.11.088-.173.266-.186.187-.053.246-.208.183-.47l-1.574-4.34c-.037-.094-.105-.141-.2-.141h-4.376z"/>
        </g>
        <g>
            <g transform="translate(153.92)">
                <mask id="d" fill="#fff">
                    <use xlink:href="#c"/>
                </mask>
                <path fill="#54565A" d="M3.822.736c.062-.353.17-.53.326-.53a.37.37 0 0 1 .245.1c.078.093.178.27.3.53l5.416 11.523 5.4-11.663c.13-.326.276-.49.436-.49.187 0 .31.21.358.63l1.805 12.631c.12 1.237.446 1.926.966 2.066.57.146.983.212 1.234.2.2 0 .307.048.32.145 0 .065-.044.116-.136.153-.11.04-.235.06-.38.06a129.022 129.022 0 0 1-4.031-.117c-.407-.038-.6-.113-.571-.222 0-.093.07-.166.21-.22.074-.026.119-.11.147-.25.014-.133 0-.341-.04-.63l-1.193-8.988h-.078l-4.331 9.261c-.383.803-.627 1.186-.738 1.146-.076 0-.167-.095-.271-.288a8.546 8.546 0 0 1-.418-.729c-.278-.572-.68-1.396-1.214-2.471a70.276 70.276 0 0 1-1.073-2.163c-.42-.97-1.11-2.482-2.067-4.536h-.078l-1.038 8.133c-.035.339-.055.66-.055.966.013.368.213.583.597.65.358.066.636.1.836.1.18 0 .278.048.291.145-.013.142-.17.213-.475.213l-2.08-.06c-.525.014-1.176.034-1.954.06-.225 0-.342-.07-.358-.213 0-.097.107-.146.311-.146.136.013.334-.006.6-.06.265-.08.46-.283.591-.61.12-.298.196-.633.223-1.005L3.822.736z" mask="url(#d)"/>
            </g>
            <path fill="#54565A" d="M180.468 6.56c0-2.674-.011-4.117-.034-4.33-.024-.685-.25-1.068-.677-1.148a3.275 3.275 0 0 0-.72-.077c-.205.013-.31-.056-.31-.207 0-.101.158-.155.476-.155.947.016 1.81.036 2.578.06.671-.013 1.48-.033 2.423-.06.266 0 .404.054.418.155 0 .151-.107.218-.32.204-.176 0-.376.02-.596.06-.253.04-.433.15-.545.33-.117.187-.182.466-.195.84-.014.273-.018.69-.018 1.25a149.67 149.67 0 0 0-.022 3.087v3.597c-.011 2.046.013 3.542.08 4.488.038.272.106.487.213.65.098.192.294.307.585.347.329.053.666.08 1.01.08.214 0 .321.053.321.164-.011.13-.138.195-.378.195-1.416-.027-2.445-.044-3.091-.058-.667.014-1.5.031-2.5.058-.267 0-.398-.064-.398-.193-.014-.11.086-.164.308-.164.31 0 .547-.029.716-.082.358-.08.553-.419.58-1.017.065-.93.096-2.418.096-4.459V6.56zM194.753 10.164c-.013 1.31.007 2.318.058 3.023.053.738.173 1.196.36 1.376.156.135.409.241.758.32.347.088.896.13 1.651.13.534 0 .998-.036 1.392-.111.382-.051.693-.208.93-.468.28-.352.454-.762.516-1.227 0-.186.076-.286.225-.3.102 0 .158.114.158.34 0 .152-.03.496-.08 1.028-.067.532-.136.973-.216 1.325-.038.22-.124.364-.258.43-.164.08-.495.12-.993.12-2.56-.04-4.487-.08-5.78-.118-.668.011-1.501.031-2.503.058-.263 0-.398-.062-.398-.195-.014-.109.09-.164.309-.164.309 0 .549-.027.715-.08a.598.598 0 0 0 .418-.39c.085-.186.136-.432.162-.738.065-.94.096-2.391.096-4.357V6.567c0-2.677-.011-4.122-.033-4.335-.012-.36-.074-.627-.185-.8-.115-.193-.338-.317-.667-.37a3.033 3.033 0 0 0-.66-.06c-.226.014-.34-.048-.34-.184 0-.115.15-.175.436-.175 1.111.014 2.022.034 2.725.06.755-.013 1.653-.033 2.693-.06.278 0 .416.06.416.175 0 .136-.113.198-.349.184-.253 0-.511.02-.776.06-.255.04-.435.15-.546.33-.118.187-.183.466-.192.84-.013.273-.022.69-.022 1.248a155.2 155.2 0 0 0-.02 3.087v3.597z"/>
            <g transform="translate(201.854)">
                <mask id="f" fill="#fff">
                    <use xlink:href="#e"/>
                </mask>
                <path fill="#54565A" d="M6.585 10.805c0-.531-.037-.955-.115-1.27a3.672 3.672 0 0 0-.34-.877c-.027-.113-.185-.421-.476-.92A67.973 67.973 0 0 0 4.596 5.97a110.24 110.24 0 0 0-1.958-3.21c-.52-.764-.98-1.265-1.378-1.497a1.945 1.945 0 0 0-.835-.26C.242 1.017.147.955.134.82.147.702.27.644.514.644c.682.014 1.515.034 2.5.06.218 0 .522-.013.911-.04.369-.013.77-.02 1.211-.02.196 0 .291.058.291.176 0 .097-.146.17-.437.223-.183.054-.271.175-.271.37 0 .16.077.39.233.69.098.166.309.536.64 1.108.316.574.667 1.223 1.045 1.95l1.686 3.067c.074-.153.254-.496.545-1.03.278-.499.587-1.08.931-1.738a154.326 154.326 0 0 0 1.511-2.859c.18-.452.272-.809.272-1.068a.795.795 0 0 0-.078-.33c-.051-.08-.162-.14-.336-.18-.229-.026-.349-.095-.362-.203 0-.118.113-.176.342-.176a73 73 0 0 1 1.872.06c.735-.013 1.442-.033 2.122-.06.224 0 .344.051.36.156-.016.135-.142.203-.38.203-.24 0-.529.08-.873.24-.35.166-.707.503-1.076 1.008-.407.574-1.07 1.642-1.985 3.21a75.244 75.244 0 0 0-1.124 2.007c-.35.614-.574 1.044-.676 1.29-.067.18-.118.348-.158.51-.044.179-.08.35-.104.51-.03.345-.04.688-.04 1.027v1.68c-.014.406.004 1.086.057 2.037.014.308.087.554.223.74.104.206.302.337.593.39.331.051.665.078.996.078.213 0 .315.055.315.166-.015.128-.16.195-.424.195l-3.034-.06c-.7.013-1.527.033-2.48.06-.291 0-.438-.067-.438-.195 0-.109.107-.164.322-.164.278 0 .51-.027.698-.08.196-.053.347-.184.458-.39.089-.186.145-.432.158-.738.035-.95.055-1.629.055-2.034v-1.685z" mask="url(#f)"/>
            </g>
            <path fill="#54565A" d="M5.275 33.506c-.008 1.334.014 2.3.065 2.899.018.203.062.367.135.492.063.137.19.223.383.259.22.035.44.05.66.05.15 0 .226.038.226.112 0 .086-.097.128-.29.128-.916-.015-1.585-.029-2.005-.038l-1.678.038c-.185 0-.276-.042-.276-.128-.009-.074.053-.109.191-.109.207 0 .365-.018.476-.053a.393.393 0 0 0 .278-.26c.055-.124.09-.288.109-.491.042-.599.064-1.565.064-2.9v-2.393c0-1.781-.009-2.74-.022-2.883-.01-.241-.05-.416-.122-.532-.078-.128-.227-.21-.445-.248a2.96 2.96 0 0 0-.516-.038c-.15 0-.226-.037-.226-.11 0-.087.1-.129.304-.129a79.29 79.29 0 0 1 1.905.04c1.264 0 2.429-.004 3.498-.013.236-.01.418-.027.542-.053a.612.612 0 0 1 .207-.08c.064.009.098.049.098.12-.01.07-.047.272-.111.607-.018.352-.04.718-.067 1.097 0 .128-.042.192-.129.192-.082 0-.129-.073-.138-.219v-.23a.831.831 0 0 0-.077-.286c-.034-.098-.127-.193-.278-.286-.143-.071-.343-.111-.596-.12l-2.047-.04c-.078 0-.118.062-.118.186v3.407c-.008.084.023.126.092.126l1.69-.013c.225 0 .423-.005.594-.014.251 0 .443-.082.576-.246.051-.093.107-.14.169-.14.05 0 .075.043.075.127a3.288 3.288 0 0 1-.064.525c-.007.1-.02.206-.038.317a12.12 12.12 0 0 0-.051.989.933.933 0 0 1-.013.166c-.01.062-.05.093-.123.093-.068-.009-.102-.073-.102-.193 0-.106-.026-.244-.078-.419a.64.64 0 0 0-.2-.297.587.587 0 0 0-.202-.14 1.125 1.125 0 0 0-.275-.053 8.944 8.944 0 0 0-1.003-.04h-.955c-.06 0-.092.04-.092.12v1.104zM28.158 36.963c.244 0 .536-.049.871-.146.342-.102.682-.297 1.018-.585.336-.302.613-.747.831-1.337.22-.58.334-1.356.343-2.327-.018-1.542-.387-2.75-1.11-3.623-.73-.869-1.65-1.307-2.758-1.316-.37 0-.744.057-1.122.173a2.62 2.62 0 0 0-1.058.684c-.318.306-.573.736-.767 1.29-.202.554-.302 1.259-.302 2.114 0 1.45.36 2.646 1.082 3.59.705.971 1.696 1.465 2.972 1.483m-.553.676c-1.876-.035-3.239-.625-4.085-1.766-.836-1.106-1.25-2.294-1.24-3.564-.01-1.243.408-2.424 1.25-3.543.84-1.157 2.239-1.751 4.199-1.787 3.487.076 5.267 1.771 5.34 5.084-.008 1.59-.497 2.903-1.468 3.943-.967 1.061-2.3 1.606-3.996 1.633M47.435 31.113c0-1.781-.009-2.743-.024-2.885-.007-.24-.049-.417-.122-.532-.078-.129-.225-.21-.445-.246a2.715 2.715 0 0 0-.515-.04c-.152.009-.227-.03-.227-.122 0-.077.098-.115.291-.115.791.009 1.434.022 1.927.038.469-.007 1.011-.02 1.625-.038.193 0 .29.038.29.115 0 .091-.07.131-.213.122-.124 0-.25.013-.38.04-.169.027-.289.1-.362.22-.078.124-.12.31-.129.558-.009.182-.013.459-.013.83-.01.373-.014 1.058-.014 2.055v1.908c0 .962.098 1.691.292 2.188.175.518.424.904.742 1.157.158.12.311.215.458.285.15.085.293.144.426.18.143.035.278.058.407.066.134.018.254.027.362.027.296 0 .607-.058.936-.173.327-.11.62-.297.882-.558.363-.381.59-.867.678-1.456.07-.58.1-1.221.091-1.922v-1.702c0-1.781-.008-2.743-.026-2.885-.007-.24-.05-.417-.123-.532-.077-.129-.224-.21-.444-.246a2.617 2.617 0 0 0-.478-.04c-.151.009-.227-.03-.227-.122 0-.077.094-.115.278-.115a30.1 30.1 0 0 1 1.523.038c.093 0 .304-.007.63-.025.31-.009.6-.013.872-.013.185 0 .276.038.276.115 0 .091-.078.131-.238.122-.12 0-.249.013-.382.04-.167.027-.287.1-.356.22-.082.124-.127.31-.136.558-.008.182-.013.459-.013.829a132.73 132.73 0 0 0-.011 2.054v1.454c.009.762-.058 1.505-.2 2.232a3.557 3.557 0 0 1-1.051 1.859c-.47.399-.936.663-1.4.791-.46.129-.91.193-1.347.193-.363.009-.816-.038-1.363-.14-.544-.106-1.07-.372-1.573-.795-.336-.302-.614-.738-.831-1.308-.23-.56-.343-1.327-.343-2.296v-1.988zM72.173 35.608c.017.514.064.885.142 1.115.078.217.182.348.315.392.238.071.467.102.692.093.148 0 .224.036.224.109-.013.086-.116.128-.309.128-.842-.015-1.389-.028-1.638-.037a75.16 75.16 0 0 1-1.424.037c-.194.01-.292-.033-.292-.128 0-.073.071-.109.214-.109.195 0 .393-.022.595-.066.17-.044.283-.195.343-.452.055-.253.08-.665.07-1.237l.116-8.055c-.009-.297.05-.45.176-.46.075 0 .151.038.224.114.078.08.163.184.258.312.485.554 1.85 2.008 4.092 4.364.502.516 1.075 1.119 1.72 1.806.631.698 1.027 1.13 1.187 1.294h.064l-.13-6.116c0-.408-.032-.7-.096-.885a.59.59 0 0 0-.354-.339 2.405 2.405 0 0 0-.704-.077c-.147 0-.216-.042-.207-.124 0-.051.036-.085.104-.102.07-.01.147-.014.238-.014.74.01 1.271.023 1.598.04.078 0 .231-.009.458-.026.233-.01.509-.014.831-.014.194-.008.296.03.305.116 0 .082-.078.124-.234.124-.117 0-.25.013-.402.037a.482.482 0 0 0-.369.326c-.073.173-.115.45-.122.831l-.142 8.59c0 .277-.06.417-.176.417-.069 0-.138-.038-.204-.113a2.032 2.032 0 0 1-.24-.184 565.63 565.63 0 0 1-3.892-3.998c-1.645-1.755-2.691-2.897-3.143-3.429h-.04l.152 5.72zM97.662 32.611c0 1.507.008 2.422.026 2.75.007.173.025.364.051.572.01.217.038.37.09.459.09.128.275.248.555.359.275.124.669.186 1.18.186 1.296.018 2.31-.308 3.04-.977.412-.39.703-.88.872-1.47a7.286 7.286 0 0 0 .237-1.919c-.008-.873-.146-1.589-.413-2.152a4.212 4.212 0 0 0-.407-.744c-.149-.2-.3-.368-.45-.506-.616-.58-1.263-.957-1.943-1.128-.68-.164-1.28-.241-1.807-.232-.14 0-.3.004-.476.013a1.758 1.758 0 0 0-.389.086c-.11.045-.162.136-.153.273-.009.596-.013 1.502-.013 2.717v1.713zm-1.65-1.498c0-1.782-.008-2.744-.022-2.886-.009-.239-.05-.416-.122-.531-.078-.129-.227-.211-.447-.246a2.7 2.7 0 0 0-.515-.04c-.151.009-.225-.034-.225-.122 0-.078.096-.118.29-.118.8.01 1.433.023 1.902.04l2.031-.04a15.96 15.96 0 0 1 2.734.193c.966.16 1.822.612 2.567 1.354.34.346.64.805.897 1.374.245.572.372 1.266.38 2.086-.008.848-.15 1.595-.43 2.236-.285.638-.62 1.154-1.007 1.553-.143.155-.34.324-.594.505a5.73 5.73 0 0 1-.929.53c-.709.36-1.676.55-2.9.572a20.166 20.166 0 0 1-1.523-.087 13.6 13.6 0 0 0-1.29-.077c-.443.009-.999.02-1.663.038-.178 0-.265-.045-.265-.129-.009-.073.058-.11.205-.11.206 0 .364-.018.475-.054a.397.397 0 0 0 .278-.26c.056-.123.091-.287.11-.491.041-.623.064-1.591.064-2.897v-2.393zM123.853 33.226c.06 0 .082-.027.064-.08l-1.193-3.36c-.007-.069-.029-.109-.065-.117-.033.008-.06.048-.075.117l-1.214 3.346c-.022.062-.004.094.054.094h2.429zm-2.694.675c-.064 0-.106.036-.124.107l-.71 1.95c-.132.363-.2.64-.2.831 0 .115.04.21.119.286.08.089.217.133.41.133h.2c.139 0 .203.038.194.11 0 .085-.073.13-.218.13a79 79 0 0 0-1.406-.04c-.245.008-.763.022-1.554.04-.167 0-.251-.045-.251-.13 0-.075.053-.11.162-.11.138 0 .273-.009.405-.027.302-.044.535-.175.704-.392a1.4 1.4 0 0 0 .231-.383c.065-.133.127-.282.187-.446l3.314-8.536c.142-.37.264-.552.366-.543.11 0 .22.144.336.43a1593.86 1593.86 0 0 0 3.27 8.363c.257.59.482.98.675 1.168.193.182.358.286.491.313.202.035.387.053.553.053.114 0 .17.038.17.11 0 .052-.036.08-.105.09-.089.026-.258.04-.502.04-.538 0-1.37-.01-2.496-.027-.254 0-.385-.034-.394-.104 0-.071.06-.114.183-.122.124-.036.164-.14.122-.313l-1.058-2.887a.136.136 0 0 0-.136-.094h-2.938zM142.658 27.928l-1.971.053a4.533 4.533 0 0 0-.845.08.797.797 0 0 0-.44.312c-.12.208-.193.366-.22.477-.017.106-.066.16-.149.16-.086 0-.124-.072-.115-.211 0-.067.018-.176.051-.326.027-.153.053-.322.08-.501.084-.397.133-.643.151-.734.036-.172.087-.259.156-.259.055 0 .126.024.213.073a.942.942 0 0 0 .353.093c.418.045.858.067 1.323.067h5.23c.79-.027 1.215-.071 1.27-.133.07 0 .105.095.105.283-.009.486-.022 1.009-.04 1.57-.009.146-.049.219-.122.219-.096.009-.145-.082-.145-.273l-.01-.153c0-.19-.116-.36-.343-.512-.233-.146-.638-.228-1.218-.246l-1.665-.04v5.579c-.008 1.307.014 2.28.065 2.918.022.19.067.348.135.472.06.138.19.224.383.26.217.033.444.05.678.05.142 0 .213.038.213.111-.013.087-.098.129-.253.129-.945-.016-1.636-.029-2.076-.038l-1.663.038c-.177 0-.264-.042-.264-.129-.009-.073.062-.108.211-.108a1.7 1.7 0 0 0 .478-.053.444.444 0 0 0 .289-.26c.053-.124.082-.288.09-.492.043-.622.065-1.589.065-2.894v-5.582zM184.346 36.963c.242 0 .536-.049.871-.146.343-.102.683-.297 1.018-.585.336-.302.614-.747.832-1.337.22-.58.333-1.356.342-2.327-.018-1.542-.387-2.75-1.11-3.623-.73-.869-1.65-1.307-2.757-1.316-.371 0-.745.057-1.123.173a2.62 2.62 0 0 0-1.058.684c-.317.306-.575.736-.766 1.29-.203.554-.303 1.259-.303 2.114 0 1.45.36 2.646 1.083 3.59.702.971 1.695 1.465 2.971 1.483m-.553.676c-1.876-.035-3.238-.625-4.085-1.766-.836-1.106-1.247-2.294-1.24-3.564-.007-1.243.409-2.424 1.251-3.543.84-1.157 2.238-1.751 4.198-1.787 3.487.076 5.268 1.771 5.34 5.084-.008 1.59-.5 2.903-1.468 3.943-.97 1.061-2.3 1.606-3.996 1.633M204.982 35.608c.02.514.065.885.143 1.115.08.217.182.348.315.392.238.071.467.102.694.093.146 0 .222.036.222.109-.013.086-.116.128-.309.128-.84-.015-1.389-.028-1.638-.037-.193.009-.669.022-1.422.037-.194.01-.291-.033-.291-.128 0-.073.068-.109.21-.109.196 0 .394-.022.596-.066.17-.044.283-.195.343-.452.057-.253.08-.665.073-1.237l.113-8.055c-.009-.297.051-.45.176-.46.078 0 .153.038.224.114.078.08.163.184.258.312.485.554 1.85 2.008 4.092 4.364.504.516 1.075 1.119 1.72 1.806.633.698 1.027 1.13 1.189 1.294h.062l-.129-6.116c0-.408-.03-.7-.098-.885a.588.588 0 0 0-.355-.339 2.367 2.367 0 0 0-.7-.077c-.15 0-.218-.042-.21-.124 0-.051.039-.085.105-.102.07-.01.15-.014.238-.014.74.01 1.274.023 1.598.04.078 0 .233-.009.458-.026.236-.01.511-.014.831-.014.193-.008.296.03.305.116 0 .082-.076.124-.234.124-.115 0-.25.013-.4.037a.478.478 0 0 0-.369.326c-.075.173-.118.45-.124.831l-.14 8.59c0 .277-.062.417-.178.417-.069 0-.138-.038-.202-.113a2.052 2.052 0 0 1-.242-.184 565.621 565.621 0 0 1-3.892-3.998c-1.645-1.755-2.692-2.897-3.143-3.429h-.037l.148 5.72zM162.156 31.087c0-1.775-.007-2.732-.022-2.874-.018-.454-.167-.707-.451-.76a2.071 2.071 0 0 0-.476-.053c-.138.009-.207-.036-.207-.135 0-.07.107-.105.316-.105a69.16 69.16 0 0 1 1.711.042c.447-.008.983-.022 1.61-.042.175 0 .268.036.275.105 0 .1-.071.144-.213.135a2.23 2.23 0 0 0-.394.04c-.169.026-.289.1-.362.217-.078.124-.12.31-.129.558-.009.182-.013.457-.013.83-.01.371-.014 1.054-.014 2.049v2.387c-.01 1.356.01 2.349.054 2.976.024.182.073.326.142.432.064.129.193.206.387.233.22.033.442.05.67.05.143 0 .214.039.214.11-.009.086-.093.13-.251.13-.942-.017-1.622-.03-2.054-.04l-1.658.04c-.175 0-.264-.044-.264-.128-.009-.073.06-.109.204-.109.207 0 .365-.02.476-.053.24-.053.367-.28.385-.676.042-.618.064-1.604.064-2.96v-2.399z"/>
        </g>
    </g>
</svg>
